<?xml version="1.0" standalone="no"?>
<!DOCTYPE svg PUBLIC "-//W3C//DTD SVG 20010904//EN"
 "http://www.w3.org/TR/2001/REC-SVG-20010904/DTD/svg10.dtd">
<svg version="1.0" xmlns="http://www.w3.org/2000/svg"
 width="512.000000pt" height="512.000000pt" viewBox="0 0 512.000000 512.000000"
 preserveAspectRatio="xMidYMid meet">

<g transform="translate(0.000000,512.000000) scale(0.100000,-0.100000)"
fill="#000000" stroke="none">
<path d="M320 5106 c-147 -41 -267 -162 -306 -310 -20 -76 -20 -4396 0 -4472
41 -155 171 -280 324 -313 75 -16 4368 -16 4444 0 157 33 293 170 327 327 8
38 11 564 11 1873 l0 1821 -29 29 c-16 16 -39 29 -50 29 -29 0 -68 -20 -78
-39 -4 -9 -10 -844 -13 -1856 l-5 -1840 -22 -40 c-25 -47 -74 -95 -123 -121
-34 -18 -109 -19 -2240 -19 -2131 0 -2206 1 -2240 19 -49 26 -98 74 -123 121
l-22 40 0 2205 0 2205 22 40 c25 47 74 95 123 121 34 18 109 19 2240 19 l2205
0 40 -22 c83 -44 130 -115 144 -214 10 -72 33 -99 87 -99 68 0 94 55 75 158
-30 162 -154 295 -315 338 -72 19 -4406 19 -4476 0z"/>
<path d="M3481 4364 c-28 -35 -26 -77 3 -111 l24 -28 293 -3 293 -3 -441 -442
c-312 -312 -444 -451 -449 -471 -14 -58 44 -116 102 -102 21 5 181 159 557
534 522 523 527 528 527 568 0 29 -6 46 -23 62 -23 22 -26 22 -444 22 l-422 0
-20 -26z"/>
<path d="M4253 3886 l-28 -24 0 -177 0 -177 28 -24 c37 -31 81 -31 112 1 25
24 25 27 25 200 0 173 0 176 -25 200 -31 32 -75 32 -112 1z"/>
<path d="M1785 1901 c-16 -10 -221 -211 -455 -445 l-425 -426 -5 291 -5 291
-28 24 c-34 29 -76 31 -111 3 l-26 -20 0 -423 0 -423 23 -21 c16 -15 36 -22
62 -22 38 0 51 12 558 518 285 284 525 529 533 544 21 40 17 66 -15 99 -34 34
-64 37 -106 10z"/>
<path d="M1264 890 c-55 -22 -70 -95 -29 -135 24 -25 27 -25 200 -25 173 0
176 0 200 25 32 31 32 75 1 112 l-24 28 -164 2 c-89 1 -173 -2 -184 -7z"/>
</g>
</svg>
