<?xml version="1.0" standalone="no"?>
<!DOCTYPE svg PUBLIC "-//W3C//DTD SVG 20010904//EN"
 "http://www.w3.org/TR/2001/REC-SVG-20010904/DTD/svg10.dtd">
<svg version="1.0" xmlns="http://www.w3.org/2000/svg"
 width="512.000000pt" height="512.000000pt" viewBox="0 0 512.000000 512.000000"
 preserveAspectRatio="xMidYMid meet">

<g transform="translate(0.000000,512.000000) scale(0.100000,-0.100000)"
fill="#000000" stroke="none">
<path d="M1480 4241 c-1457 -462 -1385 -438 -1419 -466 -66 -56 -62 46 -59
-1602 l3 -1491 30 -43 c17 -23 48 -52 70 -63 l40 -21 2415 0 2415 0 40 21 c22
11 54 40 70 63 l30 43 3 1491 c2 1347 1 1496 -13 1534 -31 82 -24 79 -657 278
-225 71 -249 77 -277 66 -39 -17 -53 -56 -36 -99 12 -28 23 -34 142 -71 70
-23 254 -81 408 -129 l280 -89 3 -1463 c2 -1351 1 -1465 -15 -1482 -15 -16
-35 -18 -215 -18 l-198 0 0 1368 c0 866 -4 1380 -10 1402 -12 43 -62 93 -109
109 -25 8 -529 11 -1875 11 -1765 0 -1843 -1 -1881 -19 -48 -22 -69 -44 -90
-94 -13 -32 -15 -196 -15 -1407 l0 -1370 -188 0 c-170 0 -191 2 -205 18 -16
17 -17 131 -15 1482 l3 1463 230 73 c127 40 374 118 550 174 1094 346 1615
510 1626 510 7 0 304 -92 660 -205 356 -113 655 -205 664 -205 24 0 65 46 65
74 0 60 -6 62 -698 280 -436 138 -666 206 -695 206 -27 -1 -417 -120 -1077
-329z m2908 -1038 l2 -233 -1309 0 c-952 0 -1317 -3 -1335 -11 -51 -23 -55
-103 -7 -128 14 -8 427 -11 1335 -11 l1316 0 0 -1060 0 -1060 -365 0 -365 0 0
75 0 75 48 0 c98 1 191 76 211 172 15 67 15 741 0 809 -12 55 -70 131 -112
146 -15 5 2 9 56 13 61 5 82 11 99 27 28 29 28 78 -1 106 -20 21 -32 22 -185
25 l-164 4 -31 126 c-36 147 -74 214 -155 269 -96 65 -73 64 -907 61 l-754 -3
-56 -28 c-64 -31 -142 -109 -166 -165 -9 -20 -28 -86 -42 -147 l-26 -110 -160
-5 c-171 -5 -200 -13 -211 -55 -17 -70 29 -105 138 -105 l63 0 -30 -19 c-43
-27 -82 -70 -99 -113 -14 -32 -16 -97 -16 -425 0 -253 4 -402 11 -428 23 -82
124 -155 217 -155 l32 0 0 -52 c0 -29 3 -63 6 -76 l6 -22 -361 0 -361 0 0
1060 0 1060 370 0 c357 0 371 1 390 20 30 30 27 83 -6 109 -26 20 -38 21 -390
21 l-364 0 0 228 c0 126 3 232 7 235 3 4 830 6 1837 5 l1831 -3 3 -232z
m-1083 -762 c79 -36 98 -71 144 -260 23 -94 41 -173 41 -176 0 -3 -111 -5
-247 -5 -240 0 -247 -1 -270 -22 -33 -30 -31 -80 3 -107 26 -20 38 -21 392
-21 326 0 367 -2 384 -17 17 -15 18 -41 18 -409 l0 -393 -22 -15 c-20 -14
-151 -16 -1206 -16 l-1183 0 -24 25 -25 24 0 376 0 376 25 24 24 25 671 0 671
0 24 25 c14 13 25 36 25 50 0 14 -11 37 -25 50 l-24 25 -551 0 c-479 0 -550 2
-550 15 0 39 74 324 92 352 22 37 66 71 106 83 15 5 351 9 747 9 676 1 722 -1
760 -18z m-1495 -1654 c0 -36 -5 -68 -12 -75 -13 -13 -173 -17 -202 -6 -12 5
-16 21 -16 75 l0 69 115 0 115 0 0 -63z m1310 -12 l0 -75 -580 0 -580 0 0 75
0 75 580 0 580 0 0 -75z m390 10 c0 -80 -7 -85 -129 -85 -106 0 -111 5 -111
94 l0 56 120 0 120 0 0 -65z"/>
<path d="M1613 1749 c-55 -10 -95 -32 -136 -73 -55 -54 -72 -100 -72 -191 0
-69 4 -86 27 -127 116 -197 410 -172 483 41 66 195 -101 389 -302 350z m126
-175 c52 -43 54 -118 5 -167 -74 -74 -194 -20 -194 89 0 28 8 44 34 70 45 45
108 48 155 8z"/>
<path d="M3367 1749 c-88 -21 -159 -79 -193 -157 -23 -51 -23 -146 -1 -204 34
-89 150 -168 247 -168 109 0 224 88 255 193 27 95 7 181 -59 255 -59 65 -169
101 -249 81z m126 -170 c39 -30 53 -85 34 -132 -17 -40 -68 -77 -107 -77 -38
0 -90 37 -106 76 -19 46 -4 105 34 133 37 28 110 28 145 0z"/>
<path d="M2049 1461 l-29 -29 0 -134 c0 -142 6 -161 57 -187 28 -14 890 -16
927 -1 14 5 35 24 46 42 19 29 20 47 18 156 l-3 124 -33 29 -32 29 -461 0
-461 0 -29 -29z m871 -166 l0 -45 -375 0 -375 0 0 45 0 45 375 0 375 0 0 -45z"/>
</g>
</svg>
